<svg width="24" height="24" viewBox="0 0 24 24" fill="none" xmlns="http://www.w3.org/2000/svg">
<path d="M3.83 23.5H20.17C21.0524 23.4974 21.8978 23.1457 22.5218 22.5218C23.1457 21.8978 23.4974 21.0524 23.5 20.17V10.83C23.5 10.5648 23.3946 10.3104 23.2071 10.1229C23.0196 9.93536 22.7652 9.83 22.5 9.83C22.2348 9.83 21.9804 9.93536 21.7929 10.1229C21.6054 10.3104 21.5 10.5648 21.5 10.83V20.17C21.4974 20.5219 21.3564 20.8587 21.1076 21.1076C20.8587 21.3564 20.5219 21.4974 20.17 21.5H3.83C3.47807 21.4974 3.1413 21.3564 2.89244 21.1076C2.64358 20.8587 2.50262 20.5219 2.5 20.17V3.83C2.50262 3.47807 2.64358 3.1413 2.89244 2.89244C3.1413 2.64358 3.47807 2.50262 3.83 2.5H13.17C13.4352 2.5 13.6896 2.39464 13.8771 2.20711C14.0646 2.01957 14.17 1.76522 14.17 1.5C14.17 1.23478 14.0646 0.98043 13.8771 0.792893C13.6896 0.605357 13.4352 0.5 13.17 0.5H3.83C2.94764 0.502638 2.10217 0.854323 1.47825 1.47825C0.854323 2.10217 0.502638 2.94764 0.5 3.83V20.17C0.502638 21.0524 0.854323 21.8978 1.47825 22.5218C2.10217 23.1457 2.94764 23.4974 3.83 23.5Z" fill="#99A2AD"/>
<path fill-rule="evenodd" clip-rule="evenodd" d="M21.22 1.13L22.87 2.78H22.86C23.0617 2.98152 23.2217 3.22082 23.3308 3.4842C23.44 3.74758 23.4962 4.02989 23.4962 4.315C23.4962 4.60011 23.44 4.88242 23.3308 5.1458C23.2217 5.40918 23.0617 5.64848 22.86 5.85L10.54 18.18C10.1289 18.5835 9.57601 18.8097 9 18.81H6.17C5.90478 18.81 5.65043 18.7046 5.46289 18.5171C5.27535 18.3296 5.17 18.0752 5.17 17.81V15C5.17549 14.4309 5.4013 13.8861 5.8 13.48L18.15 1.13C18.5609 0.732431 19.1083 0.507039 19.68 0.5C20.256 0.500298 20.8089 0.726493 21.22 1.13ZM8.98 16.78C9.01848 16.7956 9.06151 16.7956 9.1 16.78L18.65 7.21L16.77 5.33L7.22 14.88C7.20187 14.8939 7.1877 14.9122 7.17892 14.9333C7.17014 14.9544 7.16707 14.9774 7.17 15V16.78H8.98ZM20.07 5.82L21.45 4.43C21.4655 4.41613 21.478 4.39919 21.4866 4.38026C21.4952 4.36132 21.4997 4.3408 21.5 4.32C21.4999 4.27496 21.4819 4.2318 21.45 4.2L19.8 2.55C19.7871 2.53144 19.7699 2.51627 19.7499 2.50579C19.7299 2.49532 19.7076 2.48984 19.685 2.48984C19.6624 2.48984 19.6401 2.49532 19.6201 2.50579C19.6001 2.51627 19.5829 2.53144 19.57 2.55L18.19 3.94L20.07 5.82Z" fill="#99A2AD"/>
</svg>
